<svg width="72" height="69" viewBox="0 0 72 69" fill="none" xmlns="http://www.w3.org/2000/svg">
<path d="M4.38318 32.9927V31.7427H3.13318H1.25V30.3214H35.3976V31.7427H29.0421H27.7921V32.9927V67.3958H4.38318V32.9927Z" stroke="#11AD8E" stroke-width="2.5"/>
<path d="M55.6605 45.6261C53.1234 45.4866 50.2289 45.4406 47.8232 45.6995C46.6241 45.8286 45.4832 46.0396 44.5488 46.3841C43.664 46.7103 42.7037 47.2514 42.2526 48.2172C41.0544 50.6989 38.5402 58.2226 36.7332 65.4011L36.7331 65.4016C36.4289 66.6121 35.3372 67.4256 34.1383 67.4256C33.9258 67.4256 33.7056 67.3988 33.4834 67.343C32.0482 66.9807 31.1784 65.5251 31.5388 64.0936L31.5388 64.0934C32.0482 62.0691 33.1769 57.7545 34.4455 53.5422C35.0801 51.4352 35.7457 49.3669 36.383 47.629C37.0322 45.8585 37.615 44.5365 38.0677 43.8467C38.6528 42.9608 39.7767 42.1497 41.659 41.5322C43.5339 40.9172 46.0429 40.5344 49.2155 40.4198L50.2935 40.3808L50.4127 39.3087L51.6482 28.1969L51.6511 28.1706L51.6529 28.1442L51.6697 27.8982L51.7871 26.1843L50.1202 26.6C48.111 27.1011 45.9634 27.3675 43.5542 27.3675C40.8934 27.3675 37.989 27.0615 34.8444 26.4345L34.8436 26.4343C33.5927 26.1857 32.7809 24.971 33.0292 23.7215L33.0292 23.7215C33.2781 22.4688 34.4953 21.6559 35.7402 21.9064L35.7433 21.907C43.5158 23.4505 49.7109 22.951 53.8533 20.0008L53.8539 20.0003L53.8545 19.9999L53.855 19.9996L53.855 19.9995L53.8553 19.9993L53.8557 19.999L53.8653 19.9923C53.8758 19.985 53.8933 19.9729 53.9175 19.9566C53.9659 19.9239 54.0405 19.8746 54.1375 19.8135C54.3321 19.691 54.6132 19.5238 54.9509 19.35C55.6457 18.9926 56.4956 18.652 57.2908 18.5592L57.3312 18.5545L57.3676 18.5478L57.3688 18.5476L57.3688 18.5476L57.3699 18.5474L57.3845 18.545C57.4008 18.5424 57.4282 18.5382 57.4651 18.5331C57.5392 18.5229 57.6498 18.5097 57.7842 18.4994C58.0601 18.4783 58.4016 18.4723 58.7242 18.5152C59.0724 18.5628 59.457 18.652 59.7695 18.7351C59.9226 18.7758 60.0514 18.8132 60.1408 18.84C60.1854 18.8534 60.2198 18.8641 60.2422 18.8711L60.2665 18.8788L60.2709 18.8802C62.5779 19.7344 64.5222 21.81 64.2522 24.235L64.2522 24.2352L62.3136 41.6686C62.3136 41.6688 62.3135 41.669 62.3135 41.6692C62.1371 43.247 61.5203 44.171 60.5738 44.7479C59.5564 45.368 57.99 45.69 55.73 45.6314C55.7171 45.63 55.7027 45.6287 55.6873 45.6277C55.6789 45.6271 55.67 45.6265 55.6605 45.6261Z" stroke="#11AD8E" stroke-width="2.5"/>
<path d="M64.6501 8.88439C64.6501 12.5843 61.6507 15.5837 57.9508 15.5837C54.2509 15.5837 51.2515 12.5843 51.2515 8.88439C51.2515 5.18445 54.2509 2.18506 57.9508 2.18506C61.6507 2.18506 64.6501 5.18445 64.6501 8.88439Z" stroke="#11AD8E" stroke-width="2.5"/>
<path d="M67.3496 39.2172L68.2661 26.4288H70.6724L69.6983 39.0564C69.3914 42.3108 68.8455 45.4644 67.6127 47.8042C67.0055 48.9569 66.2522 49.8707 65.3148 50.5081C64.3859 51.1397 63.2106 51.5451 61.6785 51.5865L60.4623 51.6193V52.836V63.0866V64.3366H61.7123H63.946C65.8358 64.3366 67.5513 65.796 67.989 67.7331H67.0576C66.6485 66.3993 65.4181 65.3831 63.9461 65.3831H54.6741C53.2021 65.3831 51.9726 66.3996 51.5637 67.7331H50.6333C51.0709 65.7958 52.7861 64.3366 54.6752 64.3366H56.9109H58.1609V63.0866V53.3579V52.1078L56.9109 52.1079L50.7537 52.1081V49.8049L50.9989 49.8054L53.6717 49.8114C55.6184 49.8158 57.5821 49.8201 57.6342 49.8201C61.5368 49.8201 64.0419 48.3613 65.5202 46.1372C66.9269 44.0206 67.281 41.3877 67.3496 39.2172Z" stroke="#11AD8E" stroke-width="2.5"/>
<path d="M15.1622 25.2205L15.4135 26.1414H16.3681H28.7636V26.5901H15.069L10.4547 9.68133L10.8894 9.56272L15.1622 25.2205Z" stroke="#11AD8E" stroke-width="2.5"/>
</svg>
