<svg width="65" height="86" viewBox="0 0 65 86" fill="none" xmlns="http://www.w3.org/2000/svg">
<path d="M35.1999 31.8126C43.8686 31.8126 50.8959 25.1039 50.8959 16.8284C50.8959 8.55279 43.8686 1.84412 35.1999 1.84412C26.5312 1.84412 19.5039 8.55279 19.5039 16.8284C19.5039 25.1039 26.5312 31.8126 35.1999 31.8126Z" stroke="#11AD8E" stroke-width="2" stroke-miterlimit="10" stroke-linecap="square"/>
<path d="M6 56.8441C6 50.2137 9.05535 43.8549 14.4939 39.1664C19.9325 34.478 27.3087 31.8441 35 31.8441C42.6913 31.8441 50.0675 34.478 55.5061 39.1664C60.9447 43.8549 64 50.2137 64 56.8441" stroke="#11AD8E" stroke-width="2" stroke-miterlimit="10"/>
<path fill-rule="evenodd" clip-rule="evenodd" d="M15.4 51.8441L29.8 60.0727V76.5298L15.4 84.7584L1 76.5298V60.0727L15.4 51.8441ZM10.5999 67.2038L10.6 78.3585L13.8 80.1872V69.0324L10.5999 67.2038ZM4.2 63.5468V74.7013L7.39997 76.5299V65.3753L4.2 63.5468ZM21.6993 59.1008L12.281 64.5075L15.4 66.2898L24.84 60.8955L21.6993 59.1008ZM15.4 55.5013L5.96 60.8955L9.08462 62.681L18.503 57.2744L15.4 55.5013Z" stroke="#11AD8E" stroke-width="2"/>
</svg>
