<svg width="24" height="24" viewBox="0 0 24 24" fill="none" xmlns="http://www.w3.org/2000/svg">
<path d="M22.7812 0.427734H1.21875C0.700195 0.427734 0.28125 0.84668 0.28125 1.36523V22.9277C0.28125 23.4463 0.700195 23.8652 1.21875 23.8652H12.7969V14.7891H9.74121V11.25H12.7969V8.64258C12.7969 5.61621 14.6455 3.9668 17.3467 3.9668C18.6416 3.9668 19.752 4.06348 20.0771 4.10742V7.26855H20.0742H18.2021C16.7344 7.26855 16.4502 7.96582 16.4502 8.99121V11.25H19.9541L19.4971 14.7861H16.4502V23.8652H22.7812C23.2998 23.8652 23.7188 23.4463 23.7188 22.9277V1.36523C23.7188 0.84668 23.2998 0.427734 22.7812 0.427734Z" fill="#11AD8E"/>
<path d="M22.7812 0.427734H1.21875C0.700195 0.427734 0.28125 0.84668 0.28125 1.36523V22.9277C0.28125 23.4463 0.700195 23.8652 1.21875 23.8652H12.7969V14.7891H9.74121V11.25H12.7969V8.64258C12.7969 5.61621 14.6455 3.9668 17.3467 3.9668C18.6416 3.9668 19.752 4.06348 20.0771 4.10742V7.26855H20.0742H18.2021C16.7344 7.26855 16.4502 7.96582 16.4502 8.99121V11.25H19.9541L19.4971 14.7861H16.4502V23.8652H22.7812C23.2998 23.8652 23.7188 23.4463 23.7188 22.9277V1.36523C23.7188 0.84668 23.2998 0.427734 22.7812 0.427734Z" stroke="#11AD8E"/>
</svg>
