<svg width="24" height="25" viewBox="0 0 24 25" fill="none" xmlns="http://www.w3.org/2000/svg">
<path d="M22 0.146484C23.1046 0.146484 24 1.04191 24 2.14648V22.1465C24 23.2511 23.1046 24.1465 22 24.1465H16.194C15.5513 24.1465 15.3498 23.7857 15.3498 23.4568C15.3498 23.0536 15.3649 21.7274 15.3649 20.0828C15.3959 19.6656 15.3372 19.2466 15.1929 18.854C15.0182 18.3785 15.2673 17.7168 15.7623 17.6086C18.0681 17.1049 20.1455 15.7518 20.1455 11.7357C20.1579 10.9207 19.9605 10.1234 19.5813 9.41678C19.2299 8.7622 19.0751 7.99763 19.1243 7.25636C19.1514 6.84791 19.1217 6.4371 19.0355 6.03594C18.9154 5.47664 18.4255 5.10283 17.8686 5.23352C17.4543 5.33074 16.889 5.53651 16.1596 5.95371C15.6523 6.24387 15.0558 6.3442 14.4818 6.23469C13.0399 5.95963 11.5588 5.95963 10.117 6.23469C9.5429 6.3442 8.94639 6.24387 8.4391 5.95371C7.71042 5.53692 7.14555 5.33114 6.73137 5.2338C6.17379 5.10277 5.68342 5.47726 5.56369 6.03738C5.47797 6.43841 5.44854 6.84902 5.47585 7.25725C5.52539 7.99803 5.37088 8.76211 5.01959 9.41618C4.63997 10.123 4.44188 10.9204 4.4532 11.7357C4.4532 15.605 6.38741 17.0091 8.59106 17.5598C9.16873 17.7042 9.47069 18.5117 9.33328 19.0911C9.27972 19.3169 9.1548 19.5326 8.93857 19.6169C8.73237 19.6972 8.51635 19.7513 8.29559 19.7773C7.95182 19.8179 7.60341 19.7899 7.27054 19.6949C6.93768 19.5999 6.62699 19.4397 6.35646 19.2238C6.08594 19.0078 5.86097 18.7403 5.69458 18.4367C5.49764 18.0961 5.22557 17.8049 4.89908 17.5853C4.60723 17.389 4.27879 17.2546 3.934 17.1897C3.85211 17.1743 3.76894 17.1681 3.68589 17.1748C3.4104 17.1971 2.84126 17.3136 3.72565 17.9184C4.3807 18.3359 4.86461 18.9741 5.0898 19.7175C5.08981 19.7175 5.08981 19.7175 5.08981 19.7175C5.08985 19.7177 5.49989 21.0711 7.15932 21.4255C8.21343 21.6507 9.25047 22.3805 9.25047 23.4583C9.25047 23.7827 9.02766 24.1465 8.41228 24.1465H2C0.895429 24.1465 0 23.2511 0 22.1465V2.14648C0 1.04191 0.895431 0.146484 2 0.146484H22Z" fill="#11AD8E" stroke="#09121D" stroke-width="0.000958333"/>
</svg>
