<svg width="24" height="25" viewBox="0 0 24 25" fill="none" xmlns="http://www.w3.org/2000/svg">
<path d="M0 1.86548C0 0.915984 0.789 0.146484 1.7625 0.146484H22.2375C23.211 0.146484 24 0.915984 24 1.86548V22.4275C24 23.377 23.211 24.1465 22.2375 24.1465H1.7625C0.789 24.1465 0 23.377 0 22.4275V1.86548ZM7.4145 20.2375V9.39998H3.813V20.2375H7.4145ZM5.6145 7.91948C6.87 7.91948 7.6515 7.08848 7.6515 6.04748C7.629 4.98398 6.8715 4.17548 5.6385 4.17548C4.4055 4.17548 3.6 4.98548 3.6 6.04748C3.6 7.08848 4.3815 7.91948 5.5905 7.91948H5.6145ZM12.9765 20.2375V14.185C12.9765 13.861 13.0005 13.537 13.0965 13.306C13.356 12.6595 13.9485 11.989 14.9445 11.989C16.248 11.989 16.7685 12.982 16.7685 14.44V20.2375H20.37V14.0215C20.37 10.6915 18.594 9.14348 16.224 9.14348C14.313 9.14348 13.4565 10.1935 12.9765 10.933V10.9705H12.9525C12.9605 10.958 12.9685 10.9455 12.9765 10.933V9.39998H9.3765C9.4215 10.417 9.3765 20.2375 9.3765 20.2375H12.9765Z" fill="#11AD8E"/>
</svg>
