<svg width="20" height="16" viewBox="0 0 20 16" fill="none" xmlns="http://www.w3.org/2000/svg">
<path fill-rule="evenodd" clip-rule="evenodd" d="M0.878786 0.87868C1.4414 0.31607 2.20446 0 3.00011 0H17.0001C17.7958 0 18.5588 0.31607 19.1214 0.87868C19.684 1.44129 20.0001 2.20435 20.0001 3V3.98448C20.0002 3.99422 20.0002 4.00395 20.0001 4.01368V13C20.0001 13.7957 19.684 14.5587 19.1214 15.1213C18.5588 15.6839 17.7958 16 17.0001 16H3.00011C2.20446 16 1.44139 15.6839 0.878786 15.1213C0.316177 14.5587 0.000106305 13.7956 0.000106305 13V4.01367C-3.53157e-05 4.00395 -3.55541e-05 3.99422 0.000106305 3.98449V3C0.000106305 2.20435 0.316177 1.44129 0.878786 0.87868ZM2.00011 5.86852V13C2.00011 13.2652 2.10546 13.5196 2.293 13.7071C2.48054 13.8946 2.73489 14 3.00011 14H17.0001C17.2653 14 17.5197 13.8946 17.7072 13.7071C17.8948 13.5196 18.0001 13.2652 18.0001 13V5.86852L11.6651 10.0919C11.665 10.0919 11.6649 10.092 11.6648 10.0921C11.1719 10.4208 10.5926 10.5963 10.0001 10.5963C9.40758 10.5963 8.82833 10.4208 8.33541 10.0921C8.33531 10.092 8.33521 10.0919 8.33511 10.0919L2.00011 5.86852ZM18.0001 3.46482L10.5554 8.42795L10.5551 8.42815C10.3908 8.53779 10.1977 8.5963 10.0001 8.5963C9.80256 8.5963 9.60944 8.53779 9.44511 8.42815L9.44481 8.42795L2.00011 3.46482V3C2.00011 2.73478 2.10546 2.48043 2.293 2.29289C2.48054 2.10536 2.73489 2 3.00011 2H17.0001C17.2653 2 17.5197 2.10536 17.7072 2.29289C17.8948 2.48043 18.0001 2.73478 18.0001 3V3.46482Z" fill="#11AD8E"/>
</svg>
