<svg width="24" height="25" viewBox="0 0 24 25" fill="none" xmlns="http://www.w3.org/2000/svg">
<path d="M22.125 0.146484H1.875C0.839062 0.146484 0 0.985547 0 2.02148V22.2715C0 23.3074 0.839062 24.1465 1.875 24.1465H22.125C23.1609 24.1465 24 23.3074 24 22.2715V2.02148C24 0.985547 23.1609 0.146484 22.125 0.146484ZM16.7906 10.2809C16.7953 10.384 16.7953 10.4918 16.7953 10.5996C16.7953 13.8574 14.3156 17.6168 9.77813 17.6168C8.38594 17.6168 7.0875 17.209 6 16.5105C6.19219 16.534 6.38906 16.5434 6.59063 16.5434C7.74375 16.5434 8.80781 16.1496 9.65156 15.4887C8.57344 15.4699 7.65938 14.7574 7.35 13.7777C7.5 13.8059 7.65469 13.8199 7.81406 13.8199C8.03906 13.8199 8.25938 13.7918 8.46563 13.7309C7.33594 13.5059 6.4875 12.5074 6.4875 11.3121V11.284C6.82031 11.4668 7.2 11.5793 7.60312 11.5934C6.94219 11.1527 6.50625 10.3934 6.50625 9.54023C6.50625 9.09023 6.62812 8.66367 6.83906 8.29805C8.05781 9.79336 9.87187 10.773 11.9203 10.8762C11.8781 10.698 11.8547 10.5105 11.8547 10.3137C11.8547 8.9543 12.9609 7.84805 14.3203 7.84805C15.0281 7.84805 15.6703 8.14805 16.1203 8.62617C16.6828 8.51367 17.2078 8.31211 17.6859 8.02617C17.5031 8.60273 17.1094 9.08555 16.6031 9.39023C17.1 9.3293 17.5781 9.19805 18.0187 9.00117C17.6906 9.49805 17.2734 9.9293 16.7906 10.2809Z" fill="#11AD8E"/>
</svg>
